<svg width="22" height="22" viewBox="0 0 22 22" fill="none" xmlns="http://www.w3.org/2000/svg">
<path d="M10.3113 13.9167V19.5319C10.3116 19.5806 10.3016 19.6287 10.2819 19.6733C10.2622 19.7178 10.2333 19.7576 10.1971 19.7901C10.1608 19.8226 10.1181 19.847 10.0717 19.8618C10.0253 19.8765 9.97635 19.8812 9.928 19.8756C8.3394 19.6805 6.83205 19.0635 5.56258 18.0888C4.29312 17.114 3.30788 15.817 2.70925 14.3327C2.69136 14.2876 2.68322 14.2391 2.68539 14.1907C2.68755 14.1422 2.69996 14.0947 2.7218 14.0513C2.74364 14.008 2.77441 13.9697 2.81209 13.9391C2.84978 13.9085 2.89351 13.8862 2.94042 13.8738L8.36222 12.418C8.43162 12.3998 8.50499 12.4037 8.57203 12.4293C8.63907 12.4549 8.69642 12.5008 8.73605 12.5606C9.06433 13.0355 9.53272 13.3961 10.0758 13.5919C10.1441 13.6146 10.2036 13.6581 10.2459 13.7164C10.2881 13.7747 10.311 13.8448 10.3113 13.9167ZM11.0039 2.06252C10.9132 2.06184 10.8233 2.07912 10.7393 2.11336C10.6553 2.14761 10.5789 2.19814 10.5145 2.26205C10.4501 2.32596 10.399 2.40198 10.3641 2.48573C10.3292 2.56948 10.3113 2.6593 10.3113 2.75002V7.56252C10.3099 7.74334 10.3804 7.91732 10.5072 8.04622C10.634 8.17513 10.8068 8.24843 10.9876 8.25002C11.6369 8.24722 12.2662 8.47425 12.7642 8.89092C13.2622 9.30759 13.5967 9.88703 13.7084 10.5266C13.8202 11.1662 13.702 11.8248 13.3749 12.3856C13.0477 12.9465 12.5327 13.3735 11.9209 13.591C11.8526 13.6139 11.7932 13.6576 11.7511 13.7161C11.709 13.7745 11.6863 13.8447 11.6863 13.9167V19.5319C11.686 19.5805 11.696 19.6286 11.7156 19.673C11.7353 19.7175 11.7641 19.7572 11.8002 19.7897C11.8364 19.8222 11.879 19.8467 11.9253 19.8615C11.9715 19.8763 12.0204 19.8811 12.0687 19.8756C14.3336 19.6078 16.4104 18.4842 17.8738 16.735C19.3372 14.9858 20.0766 12.7433 19.9405 10.4667C19.8045 8.19014 18.8032 6.0517 17.1418 4.48928C15.4804 2.92686 13.2846 2.05869 11.0039 2.06252ZM8.25394 10.7843C8.28593 10.3782 8.40775 9.9843 8.61058 9.63103V9.62502C8.6787 9.50736 8.71041 9.37214 8.70169 9.23646C8.69297 9.10078 8.64422 8.97073 8.56159 8.86275C8.5038 8.78848 8.43197 8.72629 8.35019 8.67971L4.19683 6.27861C4.11857 6.23349 4.03219 6.20423 3.94263 6.19251C3.85306 6.18078 3.76206 6.18683 3.67482 6.21029C3.58759 6.23375 3.50584 6.27418 3.43424 6.32925C3.36264 6.38433 3.30259 6.45298 3.25753 6.53127C2.25731 8.26357 1.8664 10.2811 2.14722 12.2616C2.15385 12.3099 2.17069 12.3563 2.19662 12.3976C2.22256 12.4389 2.25699 12.4743 2.29764 12.5013C2.33828 12.5283 2.38421 12.5463 2.43236 12.5542C2.48051 12.562 2.52979 12.5595 2.57691 12.5469L8.00988 11.086C8.07721 11.0673 8.13713 11.0284 8.18144 10.9744C8.22575 10.9204 8.25228 10.854 8.25738 10.7843H8.25394Z" fill="white"/>
</svg>
