<svg width="22" height="22" viewBox="0 0 22 22" fill="none" xmlns="http://www.w3.org/2000/svg">
<path d="M19.9375 8.25C19.9375 7.88533 19.7926 7.53559 19.5348 7.27773C19.2769 7.01987 18.9272 6.875 18.5625 6.875H15.8125V4.125C15.8125 3.76033 15.6676 3.41059 15.4098 3.15273C15.1519 2.89487 14.8022 2.75 14.4375 2.75H3.4375C3.07283 2.75 2.72309 2.89487 2.46523 3.15273C2.20737 3.41059 2.0625 3.76033 2.0625 4.125V15.125C2.0629 15.2543 2.09979 15.3809 2.16891 15.4903C2.23803 15.5996 2.33659 15.6872 2.45327 15.743C2.56995 15.7988 2.7 15.8206 2.8285 15.8059C2.957 15.7911 3.07872 15.7404 3.17969 15.6595L6.1875 13.2344V15.8125C6.1875 16.1772 6.33237 16.5269 6.59023 16.7848C6.84809 17.0426 7.19783 17.1875 7.5625 17.1875H15.6054L18.8203 19.7845C18.942 19.8829 19.0935 19.9369 19.25 19.9375C19.4323 19.9375 19.6072 19.8651 19.7361 19.7361C19.8651 19.6072 19.9375 19.4323 19.9375 19.25V8.25ZM16.2809 15.9655C16.1592 15.8671 16.0076 15.8131 15.8512 15.8125H7.5625V13.0625H14.4375C14.8022 13.0625 15.1519 12.9176 15.4098 12.6598C15.6676 12.4019 15.8125 12.0522 15.8125 11.6875V8.25H18.5625V17.8105L16.2809 15.9655Z" fill="white"/>
</svg>
