<svg width="22" height="22" viewBox="0 0 22 22" fill="none" xmlns="http://www.w3.org/2000/svg">
<path d="M14.4375 8.9375C14.4375 9.48451 14.2202 10.0091 13.8334 10.3959C13.4466 10.7827 12.922 11 12.375 11H9.625V6.875H12.375C12.922 6.875 13.4466 7.0923 13.8334 7.47909C14.2202 7.86589 14.4375 8.39049 14.4375 8.9375ZM19.9375 11C19.9375 12.7677 19.4133 14.4956 18.4313 15.9654C17.4492 17.4352 16.0534 18.5807 14.4202 19.2572C12.7871 19.9336 10.9901 20.1106 9.25638 19.7658C7.52268 19.4209 5.93017 18.5697 4.68024 17.3198C3.43031 16.0698 2.57909 14.4773 2.23424 12.7436C1.88938 11.0099 2.06637 9.21288 2.74283 7.57977C3.41929 5.94665 4.56483 4.55081 6.0346 3.56874C7.50436 2.58668 9.23233 2.0625 11 2.0625C13.3696 2.065 15.6414 3.00743 17.317 4.683C18.9926 6.35856 19.935 8.6304 19.9375 11ZM15.8125 8.9375C15.8125 8.48608 15.7236 8.03908 15.5508 7.62203C15.3781 7.20497 15.1249 6.82602 14.8057 6.50682C14.4865 6.18762 14.1075 5.93441 13.6905 5.76166C13.2734 5.58891 12.8264 5.5 12.375 5.5H8.9375C8.75517 5.5 8.5803 5.57243 8.45137 5.70136C8.32244 5.8303 8.25 6.00516 8.25 6.1875V11H7.5625C7.38017 11 7.2053 11.0724 7.07637 11.2014C6.94744 11.3303 6.875 11.5052 6.875 11.6875C6.875 11.8698 6.94744 12.0447 7.07637 12.1736C7.2053 12.3026 7.38017 12.375 7.5625 12.375H8.25V13.75H7.5625C7.38017 13.75 7.2053 13.8224 7.07637 13.9514C6.94744 14.0803 6.875 14.2552 6.875 14.4375C6.875 14.6198 6.94744 14.7947 7.07637 14.9236C7.2053 15.0526 7.38017 15.125 7.5625 15.125H8.25V16.5C8.25 16.6823 8.32244 16.8572 8.45137 16.9861C8.5803 17.1151 8.75517 17.1875 8.9375 17.1875C9.11984 17.1875 9.29471 17.1151 9.42364 16.9861C9.55257 16.8572 9.625 16.6823 9.625 16.5V15.125H13.0625C13.2448 15.125 13.4197 15.0526 13.5486 14.9236C13.6776 14.7947 13.75 14.6198 13.75 14.4375C13.75 14.2552 13.6776 14.0803 13.5486 13.9514C13.4197 13.8224 13.2448 13.75 13.0625 13.75H9.625V12.375H12.375C12.8264 12.375 13.2734 12.2861 13.6905 12.1133C14.1075 11.9406 14.4865 11.6874 14.8057 11.3682C15.1249 11.049 15.3781 10.67 15.5508 10.253C15.7236 9.83592 15.8125 9.38892 15.8125 8.9375Z" fill="white"/>
</svg>
