<svg width="22" height="22" viewBox="0 0 22 22" fill="none" xmlns="http://www.w3.org/2000/svg">
<path d="M20.4495 9.21336C20.4303 9.11655 20.3906 9.02499 20.3329 8.94492C20.2752 8.86484 20.2009 8.79813 20.1152 8.7493L17.5517 7.28836L17.5414 4.39914C17.541 4.29964 17.5191 4.20139 17.4771 4.11118C17.4352 4.02097 17.3741 3.94095 17.2981 3.87664C16.3682 3.09006 15.2974 2.48726 14.1425 2.10032C14.0516 2.06953 13.9552 2.05814 13.8596 2.06687C13.764 2.07561 13.6712 2.10427 13.5874 2.15102L11.0015 3.59649L8.41307 2.14844C8.32915 2.10143 8.23631 2.07255 8.14053 2.06367C8.04476 2.05479 7.94818 2.0661 7.85705 2.09688C6.70289 2.48631 5.6332 3.09144 4.70487 3.88008C4.62904 3.94429 4.56804 4.02417 4.52605 4.11423C4.48407 4.20428 4.4621 4.30236 4.46166 4.40172L4.44877 7.29352L1.88526 8.75446C1.79949 8.80328 1.72524 8.87 1.66756 8.95008C1.60988 9.03015 1.57011 9.12171 1.55096 9.21852C1.31635 10.3975 1.31635 11.6111 1.55096 12.7901C1.57011 12.8869 1.60988 12.9785 1.66756 13.0585C1.72524 13.1386 1.79949 13.2053 1.88526 13.2541L4.44877 14.7151L4.45908 17.6052C4.4594 17.7047 4.4813 17.8029 4.52329 17.8931C4.56528 17.9833 4.62635 18.0634 4.70229 18.1277C5.63219 18.9142 6.70305 19.517 7.85791 19.904C7.94886 19.9348 8.04524 19.9462 8.14086 19.9374C8.23648 19.9287 8.3292 19.9 8.41307 19.8533L11.0015 18.4035L13.5899 19.8516C13.6924 19.9086 13.8078 19.9382 13.9251 19.9375C14.0002 19.9375 14.0748 19.9253 14.146 19.9014C15.2998 19.5122 16.3695 18.9076 17.2981 18.1199C17.374 18.0557 17.435 17.9758 17.477 17.8858C17.5189 17.7957 17.5409 17.6976 17.5414 17.5983L17.5542 14.7065L20.1178 13.2456C20.2035 13.1967 20.2778 13.13 20.3355 13.0499C20.3931 12.9699 20.4329 12.8783 20.4521 12.7815C20.6854 11.6035 20.6845 10.391 20.4495 9.21336ZM11.0015 14.4375C10.3216 14.4375 9.65703 14.2359 9.09173 13.8582C8.52644 13.4805 8.08585 12.9436 7.82567 12.3155C7.56549 11.6874 7.49742 10.9962 7.63006 10.3294C7.76269 9.66257 8.09008 9.05007 8.57083 8.56932C9.05157 8.08858 9.66407 7.76119 10.3309 7.62855C10.9977 7.49592 11.6889 7.56399 12.317 7.82417C12.9451 8.08434 13.482 8.52494 13.8597 9.09023C14.2374 9.65553 14.439 10.3201 14.439 11C14.439 11.9117 14.0768 12.786 13.4322 13.4307C12.7875 14.0753 11.9132 14.4375 11.0015 14.4375Z" fill="white"/>
</svg>
