<svg width="9" height="14" viewBox="0 0 9 14" fill="none" xmlns="http://www.w3.org/2000/svg">
<g id="Group 31">
<g id="Arrow Right">
<path id="Shape" d="M7.71967 5.05108C8.01256 5.34397 8.48744 5.34397 8.78033 5.05108C9.07322 4.75819 9.07322 4.28331 8.78033 3.99042L5.03033 0.240422C4.73744 -0.0524709 4.26256 -0.0524709 3.96967 0.240422L0.21967 3.99042C-0.0732233 4.28332 -0.0732233 4.75819 0.21967 5.05108C0.512563 5.34398 0.987437 5.34398 1.28033 5.05108L4.5 1.83141L7.71967 5.05108Z" fill="#3C3C43" fill-opacity="0.3"/>
</g>
<g id="Arrow Right_2">
<path id="Shape_2" d="M1.28033 8.94892C0.987436 8.65602 0.512564 8.65602 0.21967 8.94892C-0.0732231 9.24181 -0.0732232 9.71668 0.21967 10.0096L3.96967 13.7596C4.26256 14.0525 4.73744 14.0525 5.03033 13.7596L8.78033 10.0096C9.07322 9.71668 9.07322 9.24181 8.78033 8.94892C8.48744 8.65602 8.01256 8.65602 7.71967 8.94892L4.5 12.1686L1.28033 8.94892Z" fill="#3C3C43" fill-opacity="0.3"/>
</g>
</g>
</svg>
