<svg width="22" height="22" viewBox="0 0 22 22" fill="none" xmlns="http://www.w3.org/2000/svg">
<path d="M21.1391 8.48461L16.3266 2.98461C16.2622 2.91112 16.183 2.85218 16.0941 2.81173C16.0051 2.77127 15.9086 2.75023 15.811 2.75H6.18595C6.08827 2.75023 5.99176 2.77127 5.90285 2.81173C5.81394 2.85218 5.73467 2.91112 5.67033 2.98461L0.857827 8.48461C0.745555 8.61279 0.684887 8.7781 0.687586 8.94848C0.690286 9.11885 0.756161 9.28216 0.872436 9.40672L10.4974 19.7192C10.5618 19.7882 10.6396 19.8432 10.7261 19.8808C10.8126 19.9184 10.9059 19.9378 11.0002 19.9378C11.0945 19.9378 11.1878 19.9184 11.2743 19.8808C11.3608 19.8432 11.4386 19.7882 11.5029 19.7192L21.1279 9.40672C21.2437 9.28173 21.309 9.11819 21.311 8.94781C21.3131 8.77744 21.2518 8.61237 21.1391 8.48461ZM19.1084 8.25H15.4672L12.3735 4.125H15.499L19.1084 8.25ZM6.40767 9.625L8.99697 16.0987L2.95556 9.625H6.40767ZM15.5892 9.625H19.0413L12.9999 16.0987L15.5892 9.625ZM6.4979 4.125H9.62345L6.5297 8.25H2.88853L6.4979 4.125Z" fill="white"/>
</svg>
