<svg width="29" height="23" viewBox="0 0 29 23" fill="none" xmlns="http://www.w3.org/2000/svg">
<path d="M28.4172 6.36386L12.3659 22.4139C12.1802 22.5996 11.9597 22.747 11.717 22.8475C11.4744 22.9481 11.2143 22.9998 10.9516 22.9998C10.6889 22.9998 10.4288 22.9481 10.1861 22.8475C9.94342 22.747 9.72292 22.5996 9.5372 22.4139L0.584699 13.4139C0.210291 13.0389 0 12.5306 0 12.0007C0 11.4708 0.210291 10.9626 0.584699 10.5876L3.5847 7.58761C3.95848 7.21373 4.4651 7.00306 4.99378 7.00165C5.52245 7.00025 6.03018 7.20823 6.40595 7.58011L10.9859 11.9889L10.9997 12.0026L22.5909 0.581365C22.9658 0.208101 23.4732 -0.00146484 24.0022 -0.00146484C24.5312 -0.00146484 25.0386 0.208101 25.4134 0.581365L28.4134 3.52636C28.6008 3.712 28.7495 3.93285 28.8512 4.1762C28.9528 4.41956 29.0053 4.68061 29.0057 4.94433C29.006 5.20806 28.9542 5.46925 28.8532 5.71287C28.7522 5.95649 28.604 6.17774 28.4172 6.36386Z" fill="white"/>
</svg>
